<svg xmlns="http://www.w3.org/2000/svg" version="1.1" xmlns:xlink="http://www.w3.org/1999/xlink" xmlns:svgjs="http://svgjs.dev/svgjs" viewBox="0 0 800 800" opacity="1"><g stroke-width="2" stroke="hsl(0, 0%, 98%)" fill="none"><path d="M779.4362426035216 431.1465733209193C783.8901284409346 517.2570785710628 553.8767727991446 627.3041836365223 433.7691393578764 680.4946382606093C313.6615059166081 733.6850928846964 276.839486333585 725.8078406526125 202.919602085434 686.4607555165378C128.9997178372829 647.1136703804631 110.55332883823223 615.7717066521379 78.95369496675107 491.62862960745076C47.354061095270026 367.4855525627637 -18.224638908413738 137.33740581610783 51.2413595023242 90.57398570203901C120.70735791306208 43.81056558797019 260.68322002554453 196.21159063931998 412.39048733829395 267.16421305992003C564.0977546510433 338.1168354805202 774.9823567661083 345.0360680707756 779.4362426035216 431.1465733209193C783.8901284409346 517.2570785710628 553.8767727991446 627.3041836365223 433.7691393578764 680.4946382606093 "></path><path d="M767.9382060881921 430.2027368409648C772.2571256881081 513.703832841104 549.2138717324328 620.4161771470042 432.74586354696066 671.9947998127855C316.2778553614884 723.5734224785668 280.5716545537084 715.9348748595764 208.89176679792558 677.7801256367161C137.2118790421427 639.6253764138557 119.32447152791173 609.2331691621465 88.68240231920277 488.85200354305607C58.04033311049386 368.4708379239655 -5.551133559744926 145.2968774423598 61.80983459612213 99.95053066508092C129.17080275198919 54.60418388780204 264.90497207318424 202.38699605880794 412.01504946736554 271.18953901211717C559.1251268615466 339.9920819654262 763.6192864882764 346.7016408408256 767.9382060881921 430.2027368409648C772.2571256881081 513.703832841104 549.2138717324328 620.4161771470042 432.74586354696066 671.9947998127855 "></path><path d="M756.4400780201286 429.25893087858844C760.624031382547 510.15061762872324 544.5508791129866 613.528201175064 431.72249618331057 663.4949918825397C318.89411325363426 713.4617825900154 284.30373122109745 706.0619395841185 214.86383995768279 669.0995262744725C145.42394869426812 632.1371129648267 128.09552266485684 602.6946621897332 98.41101811892008 486.0754079962394C68.72651357298327 369.45615380274535 7.122280236189454 153.25637958618984 72.37821813718568 109.32710614570095C137.6341560381819 65.39783270521201 269.1266325680896 208.56243199587402 411.63952004370265 275.2148954818923C554.1524075193156 341.8673589679105 752.2561246577102 348.36724412845365 756.4400780201286 429.25893087858844C760.624031382547 510.15061762872324 544.5508791129866 613.528201175064 431.72249618331057 663.4949918825397 "></path><path d="M744.9419804696431 428.31506388105595C748.9909675945642 506.5973413811864 539.8879170111188 606.6401641679678 430.6991593372385 654.9951229171378C321.51040166335815 703.3500816663078 288.0358384060645 696.1889432735043 220.8359436350181 660.4188658770728C153.63604886397167 624.6487884806412 136.86660431938014 596.1560941821638 108.13966443621547 483.29875141426635C79.41272455305085 370.4414086463689 19.795724549702015 161.21582069486368 82.94663219582736 118.70362059116474C146.09753984195277 76.19142048746579 273.34832358057315 214.7378068977838 411.264021137618 279.2401909165112C549.1797186946628 343.7425749352385 740.8929933447221 350.03278638092536 744.9419804696431 428.31506388105595C748.9909675945642 506.5973413811864 539.8879170111188 606.6401641679678 430.6991593372385 654.9951229171378 "></path><path d="M733.4439134367358 427.3711968835232C737.3579343241595 503.0440651336494 535.2249854268289 599.7521271608714 429.6758530087445 646.4952539517358C324.1267205906604 693.2383807426 291.7679761086097 686.31594696289 226.80807782993156 651.7382054796728C161.84817955125334 617.1604639964556 145.6377164914815 589.6175261745941 117.86834127108904 480.5220948322933C90.09896605069656 371.4266634899926 32.4691993807927 169.17526180353747 93.51507677204722 128.08013503662852C154.56095416330174 86.98500826971951 277.57004511063474 220.91318179969363 410.88855274911145 283.26548635113005C544.2070603875882 345.6177909025664 729.5298925493121 351.69832863339707 733.4439134367358 427.3711968835232C737.3579343241595 503.0440651336494 535.2249854268289 599.7521271608714 429.6758530087445 646.4952539517358 "></path><path d="M721.9459074389846 426.427390921147C725.724962088911 499.4908499212687 530.5621148776952 592.8641511889314 428.65260771540693 637.99544602149C326.7431005531188 683.1267408540488 295.5001748463112 676.4430116874321 232.78027306000126 643.0576061174293C170.06037127369126 609.6722005474264 154.40888969873913 583.0790192021809 127.5970791411188 477.7454992854766C100.78526858349852 372.41197936877256 45.14273524703958 177.13476394736756 104.08358238342328 137.45671051724855C163.02442951980697 97.77865708712955 281.7918276758526 227.08861773675972 410.51314539576117 287.2908428209052C539.2344631156698 347.4930679050507 718.1668527890583 353.36393192102514 721.9459074389846 426.427390921147C725.724962088911 499.4908499212687 530.5621148776952 592.8641511889314 428.65260771540693 637.99544602149 "></path><path d="M710.4478098884991 425.4835544411924C714.091898300928 495.9376041913099 525.8991527758271 585.9761446994131 427.62927086933496 629.4956075736661C329.3593889628427 673.0150704479192 299.2322820312784 666.570045894396 238.7523767373366 634.3769762376076C178.2724714433948 602.1839065808192 163.17997135326243 576.5404817121895 137.32572545841424 474.9688732210818C111.4714795635661 373.39726472997427 57.81617956055214 185.09423557361947 114.65199644206496 146.83325548029046C171.48781332357783 108.5722753869614 286.01351868833615 233.26402315624762 410.1376464896765 291.3161687731022C534.261774291017 349.3683143899568 706.8037214760702 355.029504691075 710.4478098884991 425.4835544411924C714.091898300928 495.9376041913099 525.8991527758271 585.9761446994131 427.62927086933496 629.4956075736661 "></path><path d="M698.9497428555917 424.5397332200271C702.4588650305234 492.38437372014016 521.2362211915373 579.0881534686841 426.6059645408411 620.9957843846314C331.9757078901448 662.9034153005787 302.96441973382366 656.697095360149 244.72451093225004 625.696361616575C186.48460213067648 594.6956278730011 171.9510835253638 570.0019594809871 147.0544022932878 472.1922624154762C122.15772106121182 374.38256534996515 70.48965439164277 193.0537224586605 125.22044101828476 156.20981570212143C179.95122764492675 119.3659089455823 290.23524021839773 239.43944383452464 409.76217810117 295.34150998408836C529.2891159839421 351.243576133652 695.4406206806602 356.695092719914 698.9497428555917 424.5397332200271C702.4588650305234 492.38437372014016 521.2362211915373 579.0881534686841 426.6059645408411 620.9957843846314 "></path><path d="M687.4517063402625 423.59591199886165C690.8258622776967 488.8311432489704 516.5733201248255 572.2001622379548 425.5826887299253 612.4959611955966C334.59205733502506 652.7917601532383 306.69658795394696 646.8241448259021 250.69667564474162 617.0157469955423C194.69676333553628 587.2073491651827 180.72222621504335 563.4634372497849 156.78310964573944 469.41565160987034C132.8439930764356 375.3678659699559 83.16315974031158 201.01320934370148 135.7889161120827 165.58637592395235C188.41467248385385 130.15954250420327 294.45699226603745 245.6148645128016 409.38674023024146 299.3668511950744C524.3164881944456 353.11883787734723 684.0775504028283 358.3606807487529 687.4517063402625 423.59591199886165C690.8258622776967 488.8311432489704 516.5733201248255 572.2001622379548 425.5826887299253 612.4959611955966 "></path><path d="M675.953608789777 422.65202974254C679.1927984897138 485.27785174264443 511.91035802295755 565.3121099720695 424.5593518838532 603.9960769714055C337.20834574474907 642.6800439707415 310.4286951389141 636.9511332564987 256.66877932207694 608.3350713393535C202.90886350523982 579.7190094222083 189.4933078695666 556.9248539834263 166.5117559630349 466.63897976910835C143.53020405650318 376.35310555479055 95.83660405382409 208.97263519358626 146.35733017072442 174.96287511062707C196.8780562876247 140.95311502766793 298.678683278521 251.79022415592237 409.0112413241568 303.3921313709043C519.3437993697928 354.9940385858861 672.7144190898401 360.02620774243564 675.953608789777 422.65202974254C679.1927984897138 485.27785174264443 511.91035802295755 565.3121099720695 424.5593518838532 603.9960769714055 "></path><path d="M664.4555417568697 421.7082237801636C667.5597652193092 481.72463653026375 507.2474264386676 558.4241340001295 423.53604555535935 595.4962690411597C339.8246646720512 632.56840408219 314.1608328414593 627.0781979810407 262.6409135169904 599.6544719771099C211.1209941925215 572.230745973179 198.26442004166796 550.386347011013 176.24043279790845 463.86238422229167C154.2164455541489 377.3384214335704 108.51007888491478 216.9321373374163 156.92577474694423 184.3394505912471C205.34147060897368 151.7467638450779 302.9004048085826 257.9656600929884 408.63577293565027 307.41748784067937C514.3711410627182 356.86931558837034 661.3513182944301 361.6918110300636 664.4555417568697 421.7082237801636C667.5597652193092 481.72463653026375 507.2474264386676 558.4241340001295 423.53604555535935 595.4962690411597 "></path><path d="M652.9574899827513 420.76438730020914C655.9267472076934 478.17139080030483 502.58451011316674 551.5361275106113 422.51275448565457 586.9964305933358C342.4409988581424 622.4567336760606 317.89298580279365 617.2052321880047 268.61306297069297 590.9738420972882C219.33314013859223 564.7424520065717 207.03554747255845 543.8478095210216 185.96912489157103 461.08575815789686C164.90270231058366 378.3237067947722 121.18356897479453 224.89160896366826 167.4942345819531 193.715995554289C213.80490018911172 162.5403821449098 307.12214159743326 264.14106551247636 408.2603198059329 311.44281379287645C509.39849801443245 358.7445620732765 649.9882327578091 363.35738380011344 652.9574899827513 420.76438730020914C655.9267472076934 478.17139080030483 502.58451011316674 551.5361275106113 422.51275448565457 586.9964305933358 "></path><path d="M641.4594076910548 419.82055082025477C644.2936986784996 474.61814507034615 497.92156327008774 544.6481210210931 421.48943289837166 578.4965921455121C345.05730252665546 612.3450632699311 321.62510824654987 607.3322663949687 274.58518190681735 582.2932122174666C227.54525556708484 557.2541580399645 215.80664438587075 537.3092720310302 195.69778646765553 458.30913209350206C175.5889285494403 379.3089921559739 133.8570285470961 232.85108058992017 178.06266389938384 203.09254051733092C222.26829925167164 173.33400044474166 311.3438478687059 270.3164709319643 407.8848361586373 315.4681397450735C504.4258244485686 360.6198085581825 638.6251167036102 365.0229565701634 641.4594076910548 419.82055082025477C644.2936986784996 474.61814507034615 497.92156327008774 544.6481210210931 421.48943289837166 578.4965921455121 "></path><path d="M629.9613253993584 418.87672959908934C632.6606501493059 471.0649145991763 493.25861642700886 537.7601297903639 420.46611131108864 569.9967689564772C347.67360619516853 602.2334081225906 325.357230690306 597.4593158607215 280.55730084294174 573.612597596434C235.75737099557745 549.7658793321461 224.57774129918312 530.7707497998279 205.42644804374004 455.5325212878963C186.27515478829696 380.2942927759648 146.53048811939772 240.8105674749612 188.63109321681463 212.4691007391619C230.7316983142315 184.12763400336257 315.5655541399784 276.4918916102413 407.5093525113416 319.49348095605956C499.4531508827049 362.4950703018777 627.2620006494111 366.6885445990023 629.9613253993584 418.87672959908934C632.6606501493059 471.0649145991763 493.25861642700886 537.7601297903639 420.46611131108864 569.9967689564772 "></path><path d="M618.4632888840292 417.9328778603458C621.0276473964791 467.5116536104284 488.59571536029705 530.8721080420567 419.4428355001729 561.4969152498643C350.2899556400488 592.1217224576719 329.0893989104294 587.5863348088965 286.5294655554333 564.9319524578232C243.96953220043724 542.2775701067499 233.3488839888626 524.2321970510475 215.15515539619167 452.75587996471245C196.96142680352074 381.2795628783774 159.20399346806647 248.77002384242405 199.19956831061256 221.84563044341473C239.1951431531586 194.92123704440542 319.7873061876182 282.6672817709402 407.1339146404132 323.5187916494675C494.4805230932084 364.3703015279948 615.8989303715791 368.35410211026317 618.4632888840292 417.9328778603458C621.0276473964791 467.5116536104284 488.59571536029705 530.8721080420567 419.4428355001729 561.4969152498643 "></path><path d="M606.9652065923328 416.9890413803913C609.3945988672854 463.9584078804696 483.93276851721816 523.9841015525385 418.4195139128899 552.9970768020405C352.90625930856186 582.0100520515425 332.82152135418556 577.7133690158604 292.50158449155776 556.2513225780015C252.18164762892985 534.7892761401425 242.11998090217492 517.693659561056 224.88381697227618 449.97925390031764C207.64765304237739 382.26484823957924 171.8774530403681 256.729495468676 209.7679976280433 231.22217540645664C247.6585422157185 205.71485534423726 324.00901245889077 288.84268719042814 406.7584309931176 327.54411760166454C489.50784952734466 366.24554801290094 604.5358143173801 370.019674880313 606.9652065923328 416.9890413803913C609.3945988672854 463.9584078804696 483.93276851721816 523.9841015525385 418.4195139128899 552.9970768020405 "></path><path d="M595.4671243006362 416.0452201592259C597.7615503380916 460.4051774092999 479.26982167413917 517.0961103218093 417.396192325607 544.4972536130056C355.5225629770748 571.898396904202 336.55364379794173 567.8404184816134 298.47370342768215 547.5707079569688C260.39376305742246 527.3009974323243 250.89107781548728 511.1551373298537 234.61247854836063 447.2026430947119C218.33387928123403 383.25014885957 184.55091261266966 264.688982353717 220.33642694547405 240.5987356282876C256.1219412782784 216.50848890285823 328.2307187301633 295.0181078687051 406.3829473458221 331.5694588126506C484.53517596148083 368.1208097565961 593.172698263181 371.68526290915196 595.4671243006362 416.0452201592259C597.7615503380916 460.4051774092999 479.26982167413917 517.0961103218093 417.396192325607 544.4972536130056 "></path><path d="M583.9691030440961 415.10136842048246C586.128562844054 456.851916420552 474.6069358662164 510.2080885735021 416.37293177348033 535.9973999063927C358.1389276807442 561.7867112392835 340.2858272768542 557.9674374297882 304.4458833989628 538.890062818358C268.6059395210713 519.8126882069279 259.66223576395583 504.6165845810733 244.34120115960138 444.42600177152804C229.02016655524693 384.23541896198276 197.22443322012754 272.6484387211799 230.90491729806104 249.97526533254046C264.5854013759946 227.30209194390102 332.4524860365921 301.193498029404 406.00752473368277 335.5947695060586C479.56256343077325 369.9960409827131 581.8096432441382 373.3508204204128 583.9691030440961 415.10136842048246C586.128562844054 456.851916420552 474.6069358662164 510.2080885735021 416.37293177348033 535.9973999063927 "></path><path d="M572.4709902348216 414.157531940528C574.4954837972821 453.2986706905932 469.9439585055594 503.32008208398383 415.3495796686193 527.497561458569C360.7552008316791 551.6750408331538 344.01791920303225 548.0944716367521 310.41797181750906 530.2094329385363C276.8180244319858 512.3243942403205 268.4333021596901 498.0780470910819 254.06983221810776 441.64937570713323C239.70636227652545 385.22070432318446 209.89786227485104 280.6079103474318 241.4733160979137 259.35181029558237C273.0487699209764 238.09571024373287 336.6741617902866 307.3689034488919 405.63201056880894 339.6200954582556C474.5898593473314 371.87128746761925 570.446496672361 375.0163931904627 572.4709902348216 414.157531940528C574.4954837972821 453.2986706905932 469.9439585055594 503.32008208398383 415.3495796686193 527.497561458569 "></path><path d="M560.9729384607033 413.2136954605735C562.8624657856665 449.7454249606344 465.28104218005853 496.4320755944657 414.3262885989144 518.997723010745C363.3715350177703 541.5633704270244 347.75007216436654 538.221505843716 316.39012127121157 521.5288030587146C285.0301703780566 504.8361002737132 277.2044295905805 491.53950960109046 263.79852431177034 438.8727496427383C250.39261903296017 386.2059896843863 222.57135236473073 288.5673819736838 252.04177593292258 268.7283552586243C281.5121995011144 248.88932854356477 340.8958985791372 313.54430886837986 405.25655743909147 343.6454214104526C469.6172162990458 373.74653395252534 559.0834111357401 376.68196596051257 560.9729384607033 413.2136954605735C562.8624657856665 449.7454249606344 465.28104218005853 496.4320755944657 414.3262885989144 518.997723010745 "></path><path d="M549.474901945374 412.269858980619C551.2294630328398 446.1921792306755 460.61814111334684 489.54406910494754 413.3030127879987 510.4978845629212C365.9878844626505 531.4517000208948 351.48224038448996 528.34854005068 322.36228598370315 512.8481731788929C293.24233158291634 497.347806307106 285.97557228026005 485.00097211109903 273.52723166422203 436.09612357834357C261.078891048184 387.19127504558804 235.24485771339954 296.5268535999357 262.6102510267205 278.1049002216662C289.9756443400415 259.6829468433966 345.117650626777 319.71971428786776 404.88111956816306 347.67074736264965C464.6445885095492 375.6217804374315 547.7203408579082 378.34753873056246 549.474901945374 412.269858980619C551.2294630328398 446.1921792306755 460.61814111334684 489.54406910494754 413.3030127879987 510.4978845629212 "></path><path d="M537.9768043948885 411.3260225006645C539.5963992448569 442.63893350071675 455.9551790114788 482.6560626154293 412.2796759419266 501.9980461150973C368.60417287237453 521.3400296147653 355.21434756945706 518.4755742576439 328.3343896610385 504.1675432990712C301.45443175261994 489.85951234049867 294.7466539347833 478.4624346211076 283.2558779815174 433.3194975139487C271.7651020282516 388.1765604067898 247.91830202691204 304.48632522618766 273.1786650853622 287.4814451847081C298.4390281438124 270.47656514322847 349.3393416392605 325.8951197073557 404.5056206620784 351.69607331484667C459.6718996848964 377.49702692233757 536.3572095449201 380.01311150061235 537.9768043948885 411.3260225006645C539.5963992448569 442.63893350071675 455.9551790114788 482.6560626154293 412.2796759419266 501.9980461150973 "></path><path d="M526.4787373619811 410.38218602071004C527.9633659744522 439.0856877707579 451.29224742718884 475.76805612591113 411.25636961343275 493.4982076672734C371.22049179967667 511.22835920863577 358.9464852720023 508.6026084646078 334.3065238559519 495.4869134192495C309.6665624399016 482.37121837389134 303.51776610688466 471.9238971311163 292.984554816391 430.5428714495539C282.4513435258973 389.16184576799157 260.59177685800273 312.44579685243957 283.74710966158204 296.85799014775C306.9024424651613 281.2701834430604 353.5610631693221 332.0705251268437 404.1301522735719 355.7213992670437C454.69924137782164 379.3722734072437 524.99410874951 381.6786842706622 526.4787373619811 410.38218602071004C527.9633659744522 439.0856877707579 451.29224742718884 475.76805612591113 411.25636961343275 493.4982076672734 "></path><path d="M514.9806703290737 409.4383495407556C516.3303327040475 435.5324420407991 446.6293158428989 468.88004963639287 410.23306328493885 484.9983692194496C373.8368107269788 501.11668880250625 362.6786229745475 498.7296426715717 340.2786580508654 486.8062835394279C317.8786931271833 474.882924407284 312.2888782789861 465.38535964112486 302.71323165126455 427.7662453851591C293.137585023543 390.1471311291933 273.26525168909336 320.40526847869154 294.31555423780185 306.2345351107919C315.3658567865103 292.0638017428922 357.78278469938374 338.2459305463316 403.75468388506533 359.7467252192407C449.726583070747 381.2475198921498 513.6310079541001 383.3442570407121 514.9806703290737 409.4383495407556C516.3303327040475 435.5324420407991 446.6293158428989 468.88004963639287 410.23306328493885 484.9983692194496 "></path><path d="M503.4826032961664 408.4945283195902C504.6972994336427 431.97921156962934 441.9663842586091 461.9920584056638 409.20975695644495 476.4985460304148C376.45312965428093 491.0050336551658 366.41076067709275 488.85669213732467 346.2507922457789 478.12566891839526C326.09082381446495 467.3946456994658 321.05999045108746 458.84683740992256 312.44190848613806 424.98963457955335C303.8238265211887 391.13243174918415 285.93872652018405 328.3647553637325 304.88399881402165 315.6110953326229C323.82927110785926 302.8574353015132 362.0045062294454 344.4213512246086 403.3792154965588 363.7720664302268C444.75392476367233 383.122781635845 502.26790715869004 385.00984506955103 503.4826032961664 408.4945283195902C504.6972994336427 431.97921156962934 441.9663842586091 461.9920584056638 409.20975695644495 476.4985460304148 "></path><path d="M491.984536263259 407.5506765808467C493.064266163238 428.4259505808815 437.30345267431915 455.1040366573565 408.1864506279511 467.99869232380183C379.06944858158306 480.8933479902472 370.14289837963804 478.9837110854996 352.22292644069233 469.4450237797845C334.3029545017466 459.9063364740694 329.8311026231889 452.3082846611421 322.17058532101163 422.2129932563695C314.5100680188344 392.11770185159685 298.6122013512747 336.3242117311954 315.45244339024146 324.98762503687567C332.29268542920823 313.651038342556 366.22622775950697 350.59674138530744 403.0037471080523 367.79737712363476C439.78126645659756 384.998012861962 490.90480636328004 386.67540258081186 491.984536263259 407.5506765808467C493.064266163238 428.4259505808815 437.30345267431915 455.1040366573565 408.1864506279511 467.99869232380183 "></path><path d="M480.48646923035164 406.6068401008922C481.43123289283324 424.8727048509227 432.64052109002927 448.2160301678383 407.1631442994572 459.49885387597794C381.68576750888514 470.7816775841177 373.87503608218327 469.1107452924635 358.1950606356058 460.7643938999628C342.5150851890283 452.4180425074621 338.60221479529025 445.7697471711507 331.8992621558852 419.4363671919746C325.1963095164801 393.1029872127986 311.28567618236536 344.28368335744733 326.02088796646126 334.3641699999176C340.7560997505572 324.4446566423878 370.4479492895686 356.7721468047954 402.62827871954573 371.8227030758318C434.8086081495229 386.87325934686817 479.54170556787005 388.34097535086175 480.48646923035164 406.6068401008922C481.43123289283324 424.8727048509227 432.64052109002927 448.2160301678383 407.1631442994572 459.49885387597794 "></path><path d="M468.98840219744426 405.6630188797268C469.79819962242846 421.31947437975293 427.9775895057394 441.32803893710917 406.1398379709633 450.9990306869432C384.30208643618727 460.6700224367772 377.6071737847285 459.23779475821647 364.16719483051924 452.08377927893014C350.72721587630997 444.92976379964387 347.3733269673917 439.23122493994833 341.6279389907587 416.6597563863689C335.8825510141258 394.08828783278943 323.95915101345605 352.24317024248836 336.5893325426811 343.74073022174855C349.2195140719062 335.2382902010088 374.66967081963026 362.94756748307236 402.2528103310392 375.84804428681787C429.8359498424482 388.7485210905633 468.17860477246006 390.0065633797007 468.98840219744426 405.6630188797268C469.79819962242846 421.31947437975293 427.9775895057394 441.32803893710917 406.1398379709633 450.9990306869432 "></path><path d="M457.4903351645369 404.7191823997723C458.16516635202373 417.7662286497941 423.31465792144945 434.44003244759097 405.11653164246945 442.49919223911934C386.9184053634894 450.55835203064765 381.3393114872738 449.3648289651804 370.1393290254327 443.4031493991085C358.93934656359164 437.44146983303654 356.14443913949304 432.69268744995696 351.3566158256323 413.8831303219741C346.5687925117715 395.0735731939912 336.6326258445467 360.2026418687403 347.1577771189009 353.11727518479046C357.68292839325517 346.03190850084064 378.8913923496919 369.1229729025603 401.87734194253267 379.8733702390149C424.8632915353735 390.62376757546946 456.81550397705007 391.6721361497506 457.4903351645369 404.7191823997723C458.16516635202373 417.7662286497941 423.31465792144945 434.44003244759097 405.11653164246945 442.49919223911934 "></path><path d="M445.9922681316295 403.7753459198179C446.532133081619 414.21298291983527 418.6517263371596 427.5520259580728 404.09322531397555 433.99935379129545C389.53472429079153 440.44668162451813 385.071449189819 439.49186317214435 376.11146322034614 434.7225195192868C367.1514772508733 429.9531758664292 364.9155513115944 426.1541499599656 361.08529266050584 411.1065042575793C357.2550340094172 396.05885855519296 349.30610067563737 368.16211349499224 357.7262216951207 362.49382014783237C366.1463427146041 356.8255268006725 383.1131138797535 375.2983783220483 401.50187355402613 383.8986961912119C419.8906332282988 392.49901406037554 445.45240318164 393.33770891980043 445.9922681316295 403.7753459198179C446.532133081619 414.21298291983527 418.6517263371596 427.5520259580728 404.09322531397555 433.99935379129545 "></path><path d="M434.4942010987221 402.8315094398634C434.8990998112142 410.65973718987647 413.9887947528697 420.6640194685546 403.06991898548165 425.49951534347156C392.15104321809366 430.33501121838856 388.80358689236425 429.61889737910826 382.08359741525965 426.04188963946507C375.363607938155 422.46488189982193 373.68666348369584 419.61561246997417 370.81396949537935 408.32987819318447C367.9412755070629 397.0441439163947 361.979575506728 376.12158512124415 368.29466627134053 371.8703651108743C374.60975703595307 367.6191451005044 387.3348354098151 381.4737837415362 401.1264051655196 387.92402214340893C414.9179749212241 394.3742605452817 434.08930238623003 395.0032816898503 434.4942010987221 402.8315094398634C434.8990998112142 410.65973718987647 413.9887947528697 420.6640194685546 403.06991898548165 425.49951534347156 "></path><path d="M422.9961340658148 401.8876729599089C423.2660665408095 407.1064914599176 409.32586316857976 413.7760129790364 402.04661265698775 416.9996768956477C394.76736214539574 420.22334081225904 392.5357245949095 419.7459315860722 388.0557316101731 417.3612597596434C383.57573862543666 414.9765879332146 382.4577756557972 413.0770749799828 380.5426463302529 405.5532521287896C378.6275170047086 398.0294292775965 374.6530503378187 384.0810567474961 378.8631108475604 381.2469100739162C383.07317135730204 378.41276340033625 391.55655693987677 387.64918916102414 400.75093677701307 391.94934809560596C409.9453166141494 396.2495070301878 422.72620159082004 396.6688544599002 422.9961340658148 401.8876729599089C423.2660665408095 407.1064914599176 409.32586316857976 413.7760129790364 402.04661265698775 416.9996768956477 "></path><path d="M411.4980670329074 400.9438364799545C411.6330332704047 403.5532457299588 404.6629315842899 406.8880064895182 401.0233063284939 408.4998384478239C397.38368107269787 410.1116704061295 396.26786229745477 409.8729657930361 394.02786580508655 408.6806298798217C391.7878693127183 407.48829396660733 391.22888782789863 406.53853748999137 390.27132316512643 402.7766260643948C389.3137585023543 399.01471463879824 387.3265251689093 392.04052837374803 389.4315554237802 390.6234550369581C391.536585678651 389.20638170016815 395.77827846993836 393.82459458051204 400.37546838850653 395.974674047803C404.9726583070747 398.1247535150939 411.36310079541 398.3344272299501 411.4980670329074 400.9438364799545C411.6330332704047 403.5532457299588 404.6629315842899 406.8880064895182 401.0233063284939 408.4998384478239 "></path></g></svg>